<?xml version="1.0" encoding="UTF-8" standalone="no"?>
<!DOCTYPE svg PUBLIC "-//W3C//DTD SVG 1.1//EN"
 "http://www.w3.org/Graphics/SVG/1.1/DTD/svg11.dtd">
<!-- Generated by graphviz version 2.30.1 (20180828.1746)
 -->
<!-- Title: %3 Pages: 1 -->
<svg width="368pt" height="188pt"
 viewBox="0.00 0.00 368.00 188.00" xmlns="http://www.w3.org/2000/svg" xmlns:xlink="http://www.w3.org/1999/xlink">
<g id="graph0" class="graph" transform="scale(1 1) rotate(0) translate(4 184)">
<title>%3</title>
<polygon fill="white" stroke="white" points="-4,5 -4,-184 365,-184 365,5 -4,5"/>
<!-- ec2/alb -->
<g id="node1" class="node"><title>ec2/alb</title>
<ellipse fill="none" stroke="black" cx="36" cy="-90" rx="36.096" ry="18"/>
<text text-anchor="middle" x="36" y="-86.3" font-family="Times,serif" font-size="14.00">ec2/alb</text>
</g>
<!-- ec2/sg/alb -->
<g id="node2" class="node"><title>ec2/sg/alb</title>
<ellipse fill="none" stroke="black" cx="95" cy="-18" rx="46.2191" ry="18"/>
<text text-anchor="middle" x="95" y="-14.3" font-family="Times,serif" font-size="14.00">ec2/sg/alb</text>
</g>
<!-- ec2/alb&#45;&gt;ec2/sg/alb -->
<g id="edge1" class="edge"><title>ec2/alb&#45;&gt;ec2/sg/alb</title>
<path fill="none" stroke="black" d="M49.388,-73.1159C56.8253,-64.292 66.2334,-53.1298 74.5708,-43.238"/>
<polygon fill="black" stroke="black" points="77.487,-45.209 81.2555,-35.307 72.1346,-40.6976 77.487,-45.209"/>
</g>
<!-- ec2/iam/policy -->
<g id="node3" class="node"><title>ec2/iam/policy</title>
<ellipse fill="none" stroke="black" cx="291" cy="-18" rx="63.5411" ry="18"/>
<text text-anchor="middle" x="291" y="-14.3" font-family="Times,serif" font-size="14.00">ec2/iam/policy</text>
</g>
<!-- ec2/iam/role -->
<g id="node4" class="node"><title>ec2/iam/role</title>
<ellipse fill="none" stroke="black" cx="291" cy="-90" rx="55.3682" ry="18"/>
<text text-anchor="middle" x="291" y="-86.3" font-family="Times,serif" font-size="14.00">ec2/iam/role</text>
</g>
<!-- ec2/iam/role&#45;&gt;ec2/iam/policy -->
<g id="edge2" class="edge"><title>ec2/iam/role&#45;&gt;ec2/iam/policy</title>
<path fill="none" stroke="black" d="M291,-71.6966C291,-63.9827 291,-54.7125 291,-46.1124"/>
<polygon fill="black" stroke="black" points="294.5,-46.1043 291,-36.1043 287.5,-46.1044 294.5,-46.1043"/>
</g>
<!-- ec2/instance/01 -->
<g id="node5" class="node"><title>ec2/instance/01</title>
<ellipse fill="none" stroke="black" cx="222" cy="-162" rx="65.4659" ry="18"/>
<text text-anchor="middle" x="222" y="-158.3" font-family="Times,serif" font-size="14.00">ec2/instance/01</text>
</g>
<!-- ec2/sg/instance -->
<g id="node6" class="node"><title>ec2/sg/instance</title>
<ellipse fill="none" stroke="black" cx="154" cy="-90" rx="63.5411" ry="18"/>
<text text-anchor="middle" x="154" y="-86.3" font-family="Times,serif" font-size="14.00">ec2/sg/instance</text>
</g>
<!-- ec2/instance/01&#45;&gt;ec2/sg/instance -->
<g id="edge3" class="edge"><title>ec2/instance/01&#45;&gt;ec2/sg/instance</title>
<path fill="none" stroke="black" d="M205.885,-144.411C197.332,-135.606 186.667,-124.628 177.236,-114.919"/>
<polygon fill="black" stroke="black" points="179.478,-112.204 169.999,-107.47 174.457,-117.082 179.478,-112.204"/>
</g>
<!-- ec2/instance/01&#45;&gt;ec2/iam/role -->
<g id="edge4" class="edge"><title>ec2/instance/01&#45;&gt;ec2/iam/role</title>
<path fill="none" stroke="black" d="M238.352,-144.411C247.117,-135.519 258.067,-124.411 267.707,-114.631"/>
<polygon fill="black" stroke="black" points="270.238,-117.049 274.765,-107.47 265.253,-112.135 270.238,-117.049"/>
</g>
<!-- ec2/sg/instance&#45;&gt;ec2/sg/alb -->
<g id="edge5" class="edge"><title>ec2/sg/instance&#45;&gt;ec2/sg/alb</title>
<path fill="none" stroke="black" d="M140.018,-72.411C132.67,-63.6933 123.527,-52.8454 115.404,-43.2077"/>
<polygon fill="black" stroke="black" points="118.003,-40.8606 108.882,-35.4699 112.65,-45.3719 118.003,-40.8606"/>
</g>
<!-- s3 -->
<g id="node7" class="node"><title>s3</title>
<ellipse fill="none" stroke="black" cx="333" cy="-162" rx="27" ry="18"/>
<text text-anchor="middle" x="333" y="-158.3" font-family="Times,serif" font-size="14.00">s3</text>
</g>
</g>
</svg>
